#!OML:ASF F:\VICON\USERDATA\INSTALL\rory3\rory3.ASF
:FULLY-SPECIFIED
:DEGREES
4387
root 1.9264 18.0127 0.790239 -905.807 -150.663 906.8
lowerback 11.294 0.817289 0.821548
upperback 4.27788 1.20445 3.50621
thorax -1.92483 0.558502 3.02862
lowerneck -2.7297 6.00581 -1.63909
upperneck 12.5567 8.21874 -0.396692
head 4.5862 3.93476 0.54229
rclavicle 8.74653e-015 -3.18055e-015
rhumerus 6.68925 24.9173 -81.8663
rradius 135.481
rwrist -7.6837
rhand -45.7508 6.21655
rfingers 7.12502
rthumb -18.506 -22.9232
lclavicle 8.74653e-015 -3.18055e-015
lhumerus 1.82563 -22.0847 85.5562
lradius 136.604
lwrist 2.37819
lhand -30.9974 15.7776
lfingers 7.12502
lthumb -4.28059 45.7143
rfemur -13.8812 17.2389 1.15961
rtibia 52.1594
rfoot -20.5686 -6.92365
rtoes -19.3167
lfemur -24.6972 4.96886 -14.6109
ltibia 52.8739
lfoot -5.11889 -2.30048
ltoes -16.2758
4388
root 1.92848 18.0517 0.783558 -905.46 -149.367 906.419
lowerback 11.1435 0.913494 0.506993
upperback 4.19299 1.2911 3.20021
thorax -1.93564 0.602798 2.87627
lowerneck -3.23255 6.14477 -1.51481
upperneck 12.6023 8.34589 0.134633
head 4.68149 4.0256 0.725338
rclavicle -3.18055e-014 -1.90833e-014
rhumerus 6.69352 24.2991 -81.8905
rradius 136.296
rwrist -10.1092
rhand -42.7333 5.75583
rfingers 7.12502
rthumb -15.6015 -23.635
lclavicle -3.18055e-014 -1.90833e-014
lhumerus 2.57248 -21.9467 84.6257
lradius 136.598
lwrist 2.56868
lhand -30.9228 14.909
lfingers 7.12502
lthumb -4.20859 44.8471
rfemur -14.4498 15.8951 2.15263
rtibia 53.0826
rfoot -20.8644 -7.11206
rtoes -20.6946
lfemur -24.6438 4.92154 -14.1826
ltibia 53.2929
lfoot -4.45158 -3.57425
ltoes -18.8759
4389
root 1.93027 18.0786 0.777361 -905.209 -148.075 906.144
lowerback 11.1267 1.05381 0.168265
upperback 4.01733 1.43951 2.85891
thorax -2.11618 0.679803 2.69126
lowerneck -3.72003 6.25134 -1.36595
upperneck 12.7151 8.4349 0.58329
head 4.80496 4.09503 0.878048
rclavicle 2.8625e-014 3.49861e-014
rhumerus 6.5536 24.1671 -81.8733
rradius 136.637
rwrist -10.1235
rhand -42.6965 5.0092
rfingers 7.12502
rthumb -15.5661 -24.3844
lclavicle 2.8625e-014 3.49861e-014
lhumerus 3.23786 -21.9153 83.7226
lradius 136.608
lwrist 2.79227
lhand -30.8122 14.5231
lfingers 7.12502
lthumb -4.10177 44.4634
rfemur -15.0025 14.5327 3.08254
rtibia 54.3916
rfoot -20.972 -7.45615
rtoes -20.8849
lfemur -24.5975 5.02459 -13.9985
ltibia 53.8571
lfoot -4.09411 -4.6361
ltoes -19.9169
4390
root 1.93347 18.0913 0.771281 -905.149 -146.803 905.964
lowerback 11.1627 1.17386 -0.106127
upperback 3.82173 1.5665 2.48046
thorax -2.34225 0.7472 2.4329
lowerneck -3.96768 6.35855 -1.34041
upperneck 12.7842 8.52474 1.04678
head 4.85717 4.16238 1.04594
rclavicle 6.36111e-015 -3.65764e-014
rhumerus 6.36752 24.1359 -81.8879
rradius 137.017
rwrist -10.2948
rhand -42.7972 5.60233
rfingers 7.12502
rthumb -15.6631 -23.7837
lclavicle 6.36111e-015 -3.65764e-014
lhumerus 3.68053 -21.9494 82.8486
lradius 136.648
lwrist 2.69778
lhand -30.8066 14.8953
lfingers 7.12502
lthumb -4.09637 44.8357
rfemur -15.3856 13.2321 3.96566
rtibia 55.9849
rfoot -20.8333 -7.67982
rtoes -19.9732
lfemur -24.4274 5.29402 -14.0019
ltibia 54.4665
lfoot -3.90948 -5.51727
ltoes -19.9047
4391
root 1.93953 18.089 0.763406 -905.043 -145.692 905.694
lowerback 11.2417 1.25001 -0.390905
upperback 3.57777 1.63778 2.24376
thorax -2.64344 0.787342 2.33397
lowerneck -4.21582 6.48449 -1.46444
upperneck 12.9155 8.65916 1.45839
head 4.92724 4.24179 1.22706
rclavicle -7.23576e-014 -6.36111e-015
rhumerus 6.25284 24.2661 -81.7722
rradius 137.383
rwrist -10.5001
rhand -42.9456 6.91748
rfingers 7.12502
rthumb -15.806 -22.4572
lclavicle -7.23576e-014 -6.36111e-015
lhumerus 3.94248 -21.8981 82.2264
lradius 136.647
lwrist 2.06191
lhand -31.0831 15.8161
lfingers 7.12502
lthumb -4.36336 45.7512
rfemur -15.7075 11.8332 4.94597
rtibia 57.7445
rfoot -20.5475 -7.56412
rtoes -19.8269
lfemur -24.3133 5.50182 -14.0077
ltibia 55.0287
lfoot -3.8483 -6.06358
ltoes -20.3232
4392
root 1.95035 18.0812 0.768039 -905.112 -144.884 905.684
lowerback 11.1453 1.23981 -0.721028
upperback 3.41262 1.5841 1.96413
thorax -2.76105 0.764517 2.23624
lowerneck -4.60015 6.61131 -1.69581
upperneck 13.5289 8.795 1.93315
head 4.64851 4.32912 1.32513
rclavicle 5.14852e-014 -2.70347e-014
rhumerus 6.32158 24.5009 -81.5177
rradius 137.706
rwrist -10.545
rhand -42.7406 6.43191
rfingers 7.12502
rthumb -15.6086 -22.9583
lclavicle 5.14852e-014 -2.70347e-014
lhumerus 4.26608 -21.6035 81.6907
lradius 136.573
lwrist 1.69283
lhand -31.2753 16.0343
lfingers 7.12502
lthumb -4.54894 45.9654
rfemur -15.7765 10.1371 5.62909
rtibia 59.5116
rfoot -20.2933 -6.89373
rtoes -20.038
lfemur -24.1011 5.38424 -14.4301
ltibia 55.4215
lfoot -4.04034 -6.11071
ltoes -21.3942
4393
root 1.96176 18.0758 0.785721 -905.35 -144.148 905.887
lowerback 10.8943 1.22099 -0.972687
upperback 3.33357 1.52296 1.59192
thorax -2.69934 0.736304 2.00234
lowerneck -5.15785 6.70724 -1.97567
upperneck 13.8231 8.91144 2.33602
head 4.79771 4.3939 1.52564
rclavicle 6.65929e-014 2.06736e-014
rhumerus 6.52957 24.7853 -81.2156
rradius 137.972
rwrist -10.4183
rhand -42.4574 5.3029
rfingers 7.12502
rthumb -15.3358 -24.1084
lclavicle 6.65929e-014 2.06736e-014
lhumerus 4.50681 -21.0679 81.2465
lradius 136.534
lwrist 1.86895
lhand -31.114 15.1765
lfingers 7.12502
lthumb -4.39318 45.111
rfemur -15.5562 8.58177 6.09436
rtibia 61.1252
rfoot -19.9497 -5.83826
rtoes -19.3911
lfemur -23.7215 5.21282 -15.1944
ltibia 55.6105
lfoot -4.35533 -5.87436
ltoes -20.3177
